<?xml version="1.0" standalone="no"?>
<!DOCTYPE svg PUBLIC "-//W3C//DTD SVG 20010904//EN"
 "http://www.w3.org/TR/2001/REC-SVG-20010904/DTD/svg10.dtd">
<svg version="1.0" xmlns="http://www.w3.org/2000/svg"
 width="512.000000pt" height="512.000000pt" viewBox="0 0 512.000000 512.000000"
 preserveAspectRatio="xMidYMid meet">

<g transform="translate(0.000000,512.000000) scale(0.100000,-0.100000)"
fill="#000000" stroke="none">
<path d="M2370 5027 c-48 -24 -50 -40 -50 -384 l0 -323 80 0 80 0 2 206 3 206
93 -117 c54 -67 104 -120 120 -126 24 -9 53 2 270 110 134 67 247 121 252 121
5 0 -13 -65 -40 -146 -34 -101 -45 -146 -37 -149 55 -20 131 -45 132 -43 1 2
40 115 85 252 77 233 82 252 69 275 -8 14 -28 32 -43 40 -28 13 -40 8 -337
-140 -170 -84 -310 -151 -312 -149 -2 3 -68 85 -146 183 -81 101 -153 182
-167 188 -30 11 -24 11 -54 -4z"/>
<path d="M1813 4470 c-34 -14 -46 -40 -119 -262 l-69 -208 -335 0 c-361 0
-374 -2 -398 -53 -11 -22 -11 -32 0 -54 8 -17 116 -101 297 -230 l284 -203 34
47 c19 27 38 55 43 64 7 12 -26 40 -166 140 l-175 124 249 5 c226 5 252 7 271
24 12 11 41 80 71 172 29 85 54 154 56 154 2 0 38 -67 79 -150 l75 -150 65 32
c36 18 65 36 65 40 0 16 -238 484 -252 495 -21 17 -51 22 -75 13z"/>
<path d="M3127 4150 c-92 -24 -179 -96 -219 -185 -33 -74 -31 -183 5 -258 25
-50 104 -137 126 -137 4 0 24 77 42 171 23 117 38 173 49 178 8 5 90 18 183
31 114 16 167 27 167 35 0 25 -92 115 -143 139 -59 29 -152 40 -210 26z"/>
<path d="M3681 3644 c-47 -33 -93 -44 -184 -44 -66 0 -83 -4 -110 -23 -60 -45
-114 -59 -212 -56 l-90 3 -201 -127 -201 -126 49 -143 c27 -79 50 -149 53
-156 3 -8 45 14 125 68 65 44 123 80 127 80 4 -1 33 -42 63 -92 100 -165 274
-326 447 -412 39 -20 75 -36 80 -36 5 0 27 36 48 81 22 44 44 83 48 86 4 3
-12 -36 -37 -86 -25 -49 -42 -92 -38 -94 4 -2 36 -14 72 -26 92 -30 198 -48
326 -56 l111 -7 147 98 148 98 -30 27 c-34 31 -112 62 -200 80 -34 7 -62 16
-62 21 0 16 167 283 214 341 l49 60 -97 95 c-96 95 -96 95 -117 76 -12 -10
-80 -107 -152 -214 -71 -107 -132 -197 -134 -200 -4 -5 -323 311 -323 321 0 3
35 13 78 23 89 21 179 53 187 67 6 9 -118 265 -139 285 -8 8 -20 5 -45 -12z
m119 -764 c-28 -55 -52 -100 -55 -100 -3 0 17 45 45 100 28 55 52 100 55 100
3 0 -17 -45 -45 -100z"/>
<path d="M320 2000 l0 -80 160 0 160 0 0 80 0 80 -160 0 -160 0 0 -80z"/>
<path d="M4582 1478 c-6 -13 -22 -42 -36 -64 l-26 -41 197 -118 c152 -91 198
-115 204 -104 5 8 22 37 39 66 l31 51 -184 111 c-102 61 -191 113 -199 116 -9
4 -19 -3 -26 -17z"/>
<path d="M2485 1424 c-112 -27 -202 -80 -295 -174 -162 -161 -216 -336 -175
-564 47 -264 259 -470 531 -514 84 -14 104 -14 188 0 309 51 524 291 543 608
10 185 -47 331 -187 470 -95 95 -184 147 -300 174 -81 19 -225 19 -305 0z
m281 -420 c30 -18 60 -48 79 -78 27 -44 30 -58 30 -126 0 -68 -3 -82 -30 -126
-19 -30 -49 -60 -79 -79 -44 -27 -58 -30 -126 -30 -68 0 -82 3 -126 30 -159
99 -150 335 18 419 74 38 163 34 234 -10z"/>
<path d="M3499 1223 c42 -84 77 -205 90 -308 6 -49 11 -96 11 -103 0 -11 44
-13 228 -10 221 3 229 4 277 29 144 74 175 262 61 375 -67 68 -103 74 -423 74
l-273 0 29 -57z"/>
<path d="M4485 1197 c-38 -11 -71 -21 -72 -21 -3 -2 154 -547 158 -550 2 -2
36 6 75 17 l71 19 -79 277 c-44 152 -80 276 -81 277 -1 0 -33 -8 -72 -19z"/>
<path d="M80 960 l0 -160 798 0 799 0 12 101 c7 55 19 121 27 147 7 26 14 53
14 60 0 9 -172 12 -825 12 l-825 0 0 -160z"/>
</g>
</svg>
