<?xml version="1.0" standalone="no"?>
<!DOCTYPE svg PUBLIC "-//W3C//DTD SVG 20010904//EN"
 "http://www.w3.org/TR/2001/REC-SVG-20010904/DTD/svg10.dtd">
<svg version="1.0" xmlns="http://www.w3.org/2000/svg"
 width="512.000000pt" height="512.000000pt" viewBox="0 0 512.000000 512.000000"
 preserveAspectRatio="xMidYMid meet">

<g transform="translate(0.000000,512.000000) scale(0.100000,-0.100000)"
fill="#000000" stroke="none">
<path d="M3592 4207 l-52 -52 52 -53 53 -52 -53 -53 -52 -53 58 -57 57 -57 53
52 52 53 52 -53 53 -52 57 57 58 57 -52 53 -52 53 52 53 52 53 -53 52 c-29 29
-57 52 -62 52 -5 0 -31 -21 -57 -47 l-48 -47 -48 47 c-26 26 -52 47 -58 47 -5
0 -33 -24 -62 -53z"/>
<path d="M792 3887 l-52 -52 52 -53 53 -52 -53 -53 -52 -53 58 -57 57 -57 53
52 52 53 52 -53 53 -52 57 57 58 57 -52 53 -52 53 52 53 52 53 -53 52 c-29 29
-57 52 -62 52 -5 0 -31 -21 -57 -47 l-48 -47 -48 47 c-26 26 -52 47 -58 47 -5
0 -33 -24 -62 -53z"/>
<path d="M3202 3607 l-222 -222 58 -58 57 -57 223 223 222 222 -58 58 -57 57
-223 -223z"/>
<path d="M2511 3713 c-15 -13 -48 -109 -125 -366 -58 -192 -107 -351 -110
-354 -3 -3 -132 89 -287 206 -215 160 -289 211 -311 211 -35 0 -78 -40 -78
-72 0 -16 309 -811 325 -835 4 -7 145 53 145 62 0 6 -45 123 -100 260 -55 137
-98 250 -97 252 2 1 97 -67 211 -152 223 -167 245 -177 289 -132 16 15 47 105
106 302 45 154 86 283 90 288 4 4 60 -126 125 -288 121 -304 134 -325 186
-325 16 0 105 49 225 124 110 69 201 123 203 122 2 -2 -38 -85 -87 -185 -50
-99 -91 -182 -91 -184 0 -6 140 -71 144 -66 19 20 326 655 326 674 0 35 -42
75 -77 75 -19 0 -121 -59 -313 -180 -157 -98 -288 -176 -292 -172 -3 4 -70
167 -148 362 -84 212 -149 362 -162 373 -11 9 -33 17 -48 17 -15 0 -37 -8 -49
-17z"/>
<path d="M1200 3413 c-30 -25 -56 -48 -57 -52 -2 -4 285 -372 312 -400 4 -3
119 87 122 98 3 7 -305 395 -315 398 -4 1 -32 -19 -62 -44z"/>
<path d="M184 2916 c-67 -21 -68 -22 -33 -84 47 -83 46 -82 81 -70 23 8 81 4
254 -17 123 -16 229 -32 236 -36 15 -10 -39 -469 -56 -469 -6 0 -117 14 -246
30 -129 16 -238 30 -241 30 -17 0 -20 -80 -20 -468 l0 -417 555 -70 c305 -39
557 -73 559 -76 3 -2 9 -33 15 -68 48 -273 323 -454 587 -386 140 37 265 142
320 269 19 41 35 66 45 66 9 0 69 -7 133 -15 117 -16 149 -12 168 18 4 5 20 0
37 -13 l31 -23 123 17 c173 23 159 26 193 -50 18 -43 50 -90 88 -131 269 -287
748 -142 818 248 10 57 16 70 33 74 12 2 221 30 466 60 245 31 488 62 540 68
l95 12 -3 75 c-2 41 -7 78 -10 82 -4 3 -100 -5 -215 -20 -126 -15 -211 -22
-216 -16 -9 10 -74 524 -67 531 3 3 117 20 255 37 138 18 253 35 256 38 6 5
-11 147 -18 154 -3 3 -118 -9 -256 -27 -148 -19 -255 -28 -260 -23 -9 10 -64
454 -57 461 2 3 107 18 233 35 210 28 231 29 270 15 l42 -14 43 65 c40 62 41
65 23 79 -26 18 -111 43 -149 43 -45 0 -1173 -148 -1215 -160 -51 -13 -124
-62 -154 -101 -14 -19 -87 -142 -162 -274 -76 -132 -143 -250 -151 -262 -13
-22 -16 -20 -165 82 -165 114 -190 125 -272 126 -68 1 -119 -15 -175 -54 l-43
-31 55 -55 55 -55 40 19 c63 28 103 17 217 -60 122 -84 120 -83 108 -95 -7 -7
-28 -4 -64 9 -60 21 -93 15 -121 -21 -15 -19 -20 -20 -48 -9 -45 19 -92 6
-145 -41 l-47 -41 -22 21 c-12 12 -48 32 -80 46 -31 14 -57 29 -57 34 0 4 -15
25 -34 45 -43 47 -82 50 -128 8 l-33 -30 -41 45 c-48 52 -73 55 -127 18 -21
-14 -40 -24 -41 -22 -2 1 -75 128 -162 282 -88 153 -178 300 -202 327 -78 87
-93 91 -577 154 -236 31 -497 64 -579 75 -171 23 -224 24 -282 6z m838 -241
c62 -8 182 -24 266 -34 97 -13 164 -27 183 -38 21 -12 54 -56 99 -133 116
-196 209 -364 206 -368 -6 -5 -920 110 -928 117 -4 4 4 101 18 216 26 218 31
255 39 255 2 0 55 -7 117 -15z m3212 -220 c16 -129 27 -237 25 -239 -4 -3
-905 -117 -926 -116 -17 0 241 448 278 482 16 15 39 30 51 33 18 5 486 69 533
74 7 1 22 -93 39 -234z m47 -407 c3 -17 68 -543 66 -544 -3 -3 -490 -64 -512
-64 -14 0 -25 13 -37 43 -28 66 -100 150 -168 195 -284 190 -669 35 -742 -298
-6 -30 -13 -57 -15 -59 -2 -2 -42 -10 -89 -16 -61 -8 -87 -8 -89 -1 -2 6 -15
100 -28 210 -26 202 -25 233 8 282 l15 23 42 -19 c62 -28 85 -25 125 15 l36
36 39 -16 c57 -22 74 -19 122 25 l43 40 574 74 c587 75 609 78 610 74z"/>
<path d="M3960 1898 c-58 -11 -106 -21 -107 -22 -3 -3 26 -158 30 -162 5 -5
232 39 240 46 5 4 3 42 -4 84 -15 88 -2 84 -159 54z"/>
</g>
</svg>
