<?xml version="1.0" standalone="no"?>
<!DOCTYPE svg PUBLIC "-//W3C//DTD SVG 20010904//EN"
 "http://www.w3.org/TR/2001/REC-SVG-20010904/DTD/svg10.dtd">
<svg version="1.0" xmlns="http://www.w3.org/2000/svg"
 width="512.000000pt" height="512.000000pt" viewBox="0 0 512.000000 512.000000"
 preserveAspectRatio="xMidYMid meet">

<g transform="translate(0.000000,512.000000) scale(0.100000,-0.100000)"
fill="#000000" stroke="none">
<path d="M2885 3633 c-71 -37 -95 -74 -256 -395 l-159 -318 -960 0 c-926 0
-962 -1 -998 -19 -49 -25 -87 -66 -111 -121 -11 -25 -54 -200 -96 -388 l-77
-343 -114 -190 -114 -190 0 -476 c0 -327 4 -488 11 -514 16 -51 62 -105 112
-132 36 -19 61 -22 185 -25 88 -2 162 1 190 8 104 25 165 101 177 222 l7 68
323 0 322 0 7 61 c3 34 6 70 6 80 0 18 -20 19 -520 19 l-520 0 0 145 0 145
190 0 190 0 0 150 0 150 880 0 880 0 0 -151 0 -150 203 3 c213 4 202 2 310 56
4 2 7 -75 7 -172 l0 -176 -590 0 -590 0 0 -80 0 -80 330 0 330 0 0 -57 c1 -96
45 -174 125 -216 34 -19 60 -22 187 -25 177 -5 235 8 292 64 71 69 71 65 74
492 3 290 6 383 15 379 7 -2 263 -66 570 -143 524 -131 558 -140 552 -159 -4
-11 -9 -52 -12 -91 -6 -81 11 -126 69 -181 40 -38 55 -44 211 -84 137 -35 199
-35 263 -2 85 44 89 55 218 567 l116 467 -65 216 -66 215 10 355 c11 350 8
411 -21 467 -16 31 -59 76 -89 92 -23 11 -853 224 -877 224 -11 0 -43 -133
-34 -141 4 -3 174 -47 377 -98 204 -50 394 -98 423 -107 83 -23 83 -22 72
-389 -5 -169 -12 -310 -14 -313 -3 -2 -274 63 -603 145 l-598 149 -7 70 c-11
122 -53 208 -140 291 -30 28 -72 60 -94 71 -213 108 -464 41 -593 -158 l-36
-56 -62 16 c-34 8 -64 18 -67 21 -9 9 261 547 288 574 14 14 35 25 47 25 11 0
203 -45 426 -100 223 -55 411 -100 418 -100 12 0 49 129 40 139 -2 2 -190 50
-417 107 -430 108 -495 118 -553 87z m422 -682 c61 -31 105 -73 136 -128 27
-51 46 -133 31 -133 -5 0 -131 30 -281 67 l-272 67 17 29 c64 109 251 159 369
98z m-752 -198 c25 -25 31 -45 96 -337 33 -149 63 -281 66 -293 l5 -23 -610 0
-610 0 -7 38 c-20 107 -123 230 -243 289 -64 32 -85 37 -161 41 -214 10 -397
-114 -458 -312 l-17 -56 -108 0 c-66 0 -108 4 -108 10 0 24 122 559 136 597 9
24 23 47 32 53 11 6 379 10 994 10 896 0 978 -1 993 -17z m1255 -306 l1044
-262 38 -120 c20 -65 35 -121 33 -123 -3 -4 -1865 457 -2096 518 l-36 10 -22
102 c-12 57 -25 111 -27 121 -3 10 0 17 8 16 7 0 483 -118 1058 -262z m-2653
-142 c63 -19 136 -82 168 -146 14 -27 25 -51 25 -54 0 -3 -131 -5 -290 -5
l-290 0 15 37 c60 143 216 214 372 168z m2481 -201 c433 -108 790 -200 794
-203 4 -3 -9 -68 -28 -145 -19 -76 -33 -141 -30 -144 3 -2 76 -22 162 -43 163
-40 254 -48 313 -28 18 6 35 9 38 6 9 -10 -78 -347 -91 -347 -6 0 -386 93
-843 207 -810 202 -833 209 -833 231 0 13 -41 92 -90 174 -50 83 -89 152 -88
154 2 1 287 -69 633 -156 347 -88 635 -160 641 -160 12 0 46 132 36 142 -4 3
-315 84 -691 178 -377 94 -688 173 -692 175 -3 3 -12 32 -18 66 -7 33 -15 67
-18 75 -3 8 0 14 6 14 6 0 365 -88 799 -196z m-807 -264 c32 -52 59 -98 59
-102 0 -5 -569 -8 -1265 -8 -696 0 -1265 2 -1265 5 0 2 27 49 61 105 l60 100
1146 -2 1147 -3 57 -95z m1937 -19 c84 -22 156 -42 160 -46 11 -11 -65 -71
-106 -83 -55 -17 -91 -15 -186 9 l-84 21 15 56 c19 79 21 82 35 82 7 0 82 -18
166 -39z m-4248 -327 l0 -77 -102 5 c-107 5 -148 18 -196 62 -22 19 -52 67
-52 81 0 3 79 5 175 5 l175 0 0 -76z m2416 48 c-43 -84 -125 -122 -263 -122
l-83 0 0 75 0 75 180 0 181 0 -15 -28z m1735 -472 l96 -23 -11 -45 c-8 -29
-22 -53 -39 -65 -26 -20 -27 -20 -108 -2 l-81 19 5 62 c5 67 13 88 31 81 6 -2
54 -15 107 -27z m-4151 -303 c0 -75 -19 -91 -118 -96 -92 -4 -102 5 -102 91
l0 58 110 0 110 0 0 -53z m2440 0 c0 -75 -19 -91 -118 -96 -92 -4 -102 5 -102
91 l0 58 110 0 110 0 0 -53z"/>
<path d="M820 1350 l0 -80 740 0 741 0 -3 78 -3 77 -737 3 -738 2 0 -80z"/>
<path d="M1480 900 l0 -80 75 0 c66 0 75 2 75 19 0 10 3 46 6 80 l7 61 -82 0
-81 0 0 -80z"/>
</g>
</svg>
